<svg width="56" height="55" viewBox="0 0 56 55" fill="none" xmlns="http://www.w3.org/2000/svg">
<path d="M1.82773 27.9692C1.12154 28.107 0.660023 28.7915 0.797744 29.4982C0.935465 30.205 1.61967 30.6664 2.32586 30.5286L1.82773 27.9692ZM14.5654 14.2758L13.9706 13.1159L14.5654 14.2758ZM36.7722 24.8758L37.4535 25.9881L36.7722 24.8758ZM54.8869 3.00849C55.5081 2.64382 55.7162 1.84489 55.3513 1.22398C54.9865 0.603061 54.1881 0.395452 53.5669 0.76012L54.8869 3.00849ZM2.32586 30.5286C5.15207 29.9782 6.97321 28.9907 8.14237 27.5638C9.2793 26.1746 9.64707 24.5325 9.93862 23.1144C10.2448 21.6245 10.4792 20.3124 11.1664 19.0411C11.8242 17.8217 12.948 16.5709 15.1603 15.4357L13.9706 13.1159C11.3422 14.4647 9.80821 16.0697 8.872 17.8013C7.96363 19.4808 7.66622 21.2148 7.38346 22.5895C7.0875 24.0358 6.80912 25.0765 6.12491 25.9119C5.47147 26.7095 4.29498 27.4884 1.82773 27.9692L2.32586 30.5286ZM15.1603 15.4357C16.2313 14.886 17.125 14.7307 17.8942 14.7952C18.6678 14.8603 19.4164 15.1572 20.1798 15.6718C21.765 16.7418 23.1906 18.5843 24.7773 20.6521C26.2805 22.611 27.9581 24.8151 29.9419 26.083C30.9689 26.7403 32.1307 27.1842 33.4376 27.2065C34.746 27.2288 36.0807 26.8269 37.4535 25.9881L36.0924 23.7636C35.0522 24.3995 34.1995 24.6116 33.483 24.5993C32.7651 24.5872 32.0692 24.3481 31.3454 23.8861C29.8276 22.9156 28.4357 21.1364 26.8461 19.0647C25.3399 17.1022 23.6492 14.8671 21.6376 13.5103C20.6017 12.8113 19.4326 12.3077 18.111 12.1968C16.7836 12.0855 15.405 12.3792 13.9706 13.1159L15.1603 15.4357ZM37.4535 25.9881C39.2512 24.8879 40.8555 23.0227 42.3162 20.9411C43.7916 18.841 45.2157 16.3816 46.6046 13.992C48.0067 11.5775 49.3751 9.23216 50.7773 7.25923C52.194 5.26784 53.5536 3.79218 54.8869 3.00849L53.5669 0.76012C51.7443 1.83097 50.1238 3.67863 48.6529 5.74826C47.1672 7.83649 45.7387 10.2901 44.3498 12.6819C42.9448 15.0985 41.5807 17.4525 40.183 19.4424C38.7721 21.4505 37.4198 22.9517 36.0924 23.7636L37.4535 25.9881Z" fill="url(#paint0_linear_935_72)"/>
<path d="M14.5648 14.2758C4.8848 19.2439 12.6631 27.1864 2.07617 29.2488V54.0346H54.227V1.88428C47.9123 5.59337 43.0247 21.0517 36.7716 24.8758C27.1267 30.7745 24.5906 9.13074 14.5648 14.2758Z" fill="url(#paint1_linear_935_72)"/>
<defs>
<linearGradient id="paint0_linear_935_72" x1="2.07679" y1="18.9173" x2="54.1426" y2="23.8542" gradientUnits="userSpaceOnUse">
<stop stop-color="#756BEB"/>
<stop offset="1" stop-color="#4F84EA"/>
</linearGradient>
<linearGradient id="paint1_linear_935_72" x1="28.8028" y1="-114.175" x2="28.8028" y2="54.0105" gradientUnits="userSpaceOnUse">
<stop stop-color="#4F84EA"/>
<stop offset="0.750868" stop-color="#4F84EA" stop-opacity="0.25"/>
<stop offset="1" stop-color="#4F84EA" stop-opacity="0"/>
</linearGradient>
</defs>
</svg>
