<svg width="31" height="32" viewBox="0 0 31 32" fill="none" xmlns="http://www.w3.org/2000/svg">
<path d="M15.6619 31.0153C24.0226 31.0153 30.8004 24.2376 30.8004 15.8769C30.8004 7.51612 24.0226 0.738403 15.6619 0.738403C7.30116 0.738403 0.523438 7.51612 0.523438 15.8769C0.523438 24.2376 7.30116 31.0153 15.6619 31.0153Z" fill="url(#paint0_linear_604_81)"/>
<path d="M20.7082 11.7768C21.2308 11.7768 21.6543 11.3533 21.6543 10.8307C21.6543 10.3082 21.2308 9.88452 20.7082 9.88452V11.7768ZM11.5621 11.7768H20.7082V9.88452H11.5621V11.7768ZM11.5621 14.9307H16.6083V13.0384H11.5621V14.9307ZM10.9314 12.4077C10.9314 12.0594 11.2137 11.7768 11.5621 11.7768V9.88452C10.1686 9.88452 9.03906 11.0142 9.03906 12.4077H10.9314ZM9.03906 12.4077C9.03906 13.801 10.1686 14.9307 11.5621 14.9307V13.0384C11.2137 13.0384 10.9314 12.7561 10.9314 12.4077H9.03906Z" fill="#F1F1F1"/>
<path d="M10.9314 15.877V12.4078H9.03906V15.877H10.9314Z" fill="#F1F1F1"/>
<path d="M21.8117 19.6616V19.1885H21.3386H19.4463C18.6625 19.1885 18.0271 18.5531 18.0271 17.7693C18.0271 16.9855 18.6625 16.3501 19.4463 16.3501H21.3386H21.8117V15.877V15.8458C21.8117 15.4264 21.8117 15.0652 21.7729 14.7758C21.7311 14.4657 21.6371 14.1684 21.396 13.9273C21.1549 13.6863 20.8576 13.5922 20.5475 13.5504C20.2581 13.5116 19.8969 13.5116 19.4776 13.5116H19.4463H9.9848H9.51172V13.9847V19.6616V19.6928C9.51172 20.1122 9.51172 20.4734 9.55051 20.7627C9.59233 21.0729 9.68638 21.3702 9.92746 21.6112L10.2618 21.2769L9.92746 21.6112C10.1685 21.8523 10.4658 21.9464 10.776 21.9882C11.0653 22.027 11.4265 22.027 11.8459 22.027H11.8771H19.4463C19.4567 22.027 19.4671 22.027 19.4776 22.027C19.8969 22.027 20.2581 22.027 20.5475 21.9882C20.8576 21.9464 21.1549 21.8523 21.396 21.6112C21.6371 21.3702 21.7311 21.0729 21.7729 20.7627C21.8117 20.4734 21.8117 20.1122 21.8117 19.6928C21.8117 19.6824 21.8117 19.672 21.8117 19.6616Z" fill="#F1F1F1" stroke="#F1F1F1" stroke-width="0.5"/>
<defs>
<linearGradient id="paint0_linear_604_81" x1="0.523438" y1="19.5843" x2="30.948" y2="21.0979" gradientUnits="userSpaceOnUse">
<stop stop-color="#756BEB"/>
<stop offset="1" stop-color="#4F84EA"/>
</linearGradient>
</defs>
</svg>
