<svg width="181" height="38" viewBox="0 0 181 38" fill="none" xmlns="http://www.w3.org/2000/svg">
<path d="M70.1997 0.700195C70.2997 1.0002 70.5997 0.900194 70.7997 0.900194C73.0997 1.20019 75.3997 1.6002 77.4997 2.7002C80.6997 4.4002 83.3997 6.80019 85.1997 10.0002C87.2997 13.6002 87.8997 17.5002 87.3997 21.6002C86.7997 25.9002 84.7997 29.6002 81.5997 32.5002C79.7997 34.0002 77.9997 35.2002 75.9997 36.0002C74.9997 36.4002 73.8997 36.7002 72.8997 36.9002C71.4997 37.2002 70.0997 37.4002 68.5997 37.3002C64.8997 37.1002 61.3997 36.2002 58.3997 34.0002C55.1997 31.7002 52.8997 28.8002 51.5997 25.1002C50.5997 22.2002 50.4997 19.2002 50.8997 16.2002C51.1997 13.9002 51.9997 11.8002 53.1997 9.80019C54.7997 7.00019 56.9997 4.8002 59.8997 3.2002C62.1997 1.9002 64.5997 1.20019 67.1997 0.900194C67.3997 0.900194 67.6997 0.900195 67.7997 0.700195H70.1997ZM83.7997 19.0002C83.9997 10.7002 76.8997 4.2002 68.9997 4.2002C61.1997 4.2002 54.1997 10.6002 54.1997 19.2002C54.1997 27.3002 61.0997 33.9002 68.9997 33.9002C77.2997 33.9002 83.8997 27.4002 83.7997 19.0002ZM157.8 19.0002V2.40019C157.8 1.90019 158 1.7002 158.5 1.7002H160.8C161.2 1.7002 161.4 1.90019 161.4 2.30019V13.7002C161.4 13.9002 161.3 14.2002 161.5 14.3002C161.8 14.4002 161.9 14.1002 162 14.0002C164.4 11.8002 166.8 9.50019 169.2 7.30019C171.1 5.50019 173 3.80019 174.9 2.00019C175.1 1.80019 175.3 1.7002 175.6 1.7002H179.2C179.3 1.7002 179.5 1.70019 179.6 1.80019C179.7 2.00019 179.5 2.00019 179.4 2.10019C177.7 3.60019 176.1 5.1002 174.4 6.7002C171.9 9.0002 169.5 11.2002 167 13.5002L163.4 16.8002C163.1 17.0002 163 17.2002 163.3 17.5002C164.6 18.8002 165.9 20.2002 167.2 21.6002L173.5 28.2002C175.8 30.7002 178.2 33.1002 180.5 35.6002C180.6 35.7002 180.8 35.9002 180.7 36.1002C180.6 36.3002 180.3 36.2002 180.2 36.2002H177.1C176.7 36.2002 176.4 36.1002 176.1 35.8002C174.3 33.9002 172.5 31.9002 170.6 30.0002C168.9 28.2002 167.1 26.4002 165.4 24.6002L162.1 21.0002L161.8 20.7002C161.6 20.6002 161.5 20.3002 161.3 20.4002C161.1 20.5002 161.2 20.8002 161.2 20.9002V35.4002C161.2 36.1002 161.1 36.2002 160.4 36.2002H158.4C157.7 36.2002 157.6 36.1002 157.6 35.4002V21.0002C157.8 20.5002 157.8 19.8002 157.8 19.0002ZM108.3 1.7002C109.6 1.4002 110.3 1.8002 110.8 3.2002C112 6.2002 113.3 9.10019 114.6 12.0002C116.2 15.8002 117.9 19.5002 119.5 23.3002C120.1 24.8002 120.9 26.3002 121.4 27.8002C121.5 27.9002 121.4 28.2002 121.6 28.2002C121.8 28.2002 121.9 28.0002 122 27.9002C122.7 26.4002 123.3 25.0002 123.9 23.5002C124.7 21.6002 125.6 19.8002 126.4 17.9002L128.2 13.7002C129.6 10.7002 130.9 7.7002 132.2 4.7002C132.6 3.9002 132.9 3.10019 133.3 2.30019C133.4 2.00019 133.6 1.90019 133.9 1.90019H136.7C137.1 1.90019 137.2 2.00019 137 2.50019L132.5 12.7002L128.6 21.7002C127 25.3002 125.4 28.9002 123.8 32.6002C123.3 33.8002 122.8 34.9002 122.3 36.1002C122.2 36.4002 122.1 36.6002 121.7 36.6002C121.4 36.6002 121.2 36.4002 121.1 36.1002L118.1 29.2002C116.4 25.2002 114.7 21.2002 112.9 17.1002C112 15.0002 111.1 13.0002 110.2 10.9002C109 8.1002 107.8 5.20019 106.5 2.50019C106.3 2.20019 106.5 2.00019 106.8 2.00019C107.4 1.70019 107.9 1.7002 108.3 1.7002ZM2.8997 1.7002C4.8997 1.7002 4.4997 1.40019 5.2997 3.30019C6.3997 6.00019 7.5997 8.6002 8.6997 11.2002C9.2997 12.5002 9.7997 13.8002 10.2997 15.1002C11.5997 18.0002 12.8997 20.9002 14.0997 23.9002C14.5997 25.2002 15.2997 26.5002 15.7997 27.8002C15.8997 27.9002 15.8997 28.1002 16.0997 28.1002C16.2997 28.1002 16.3997 27.9002 16.4997 27.7002C16.8997 26.9002 17.1997 26.1002 17.4997 25.3002C18.6997 22.7002 19.7997 20.1002 20.9997 17.4002L23.9997 10.5002C24.9997 8.20019 26.0997 5.80019 27.0997 3.50019C27.2997 3.10019 27.4997 2.70019 27.5997 2.30019C27.6997 1.90019 27.9997 1.7002 28.3997 1.7002H31.0997C31.4997 1.7002 31.6997 1.8002 31.4997 2.2002C30.4997 4.5002 29.4997 6.9002 28.3997 9.2002C27.0997 12.2002 25.7997 15.2002 24.3997 18.2002C23.0997 21.2002 21.7997 24.2002 20.3997 27.2002C19.0997 30.0002 17.8997 32.8002 16.6997 35.7002C16.5997 36.0002 16.3997 36.3002 15.9997 36.3002C15.5997 36.3002 15.4997 36.0002 15.2997 35.7002C14.0997 32.8002 12.7997 29.9002 11.4997 27.0002C10.4997 24.6002 9.4997 22.2002 8.3997 19.9002C7.0997 16.8002 5.6997 13.7002 4.3997 10.6002C3.1997 7.90019 2.0997 5.30019 0.899696 2.60019C0.599696 1.80019 0.699696 1.7002 1.4997 1.7002H2.8997Z" fill="white"/>
</svg>
