<svg width="42" height="43" viewBox="0 0 42 43" fill="none" xmlns="http://www.w3.org/2000/svg">
<path d="M20.9344 42.5805C32.4552 42.5805 41.7946 33.241 41.7946 21.7203C41.7946 10.1995 32.4552 0.860107 20.9344 0.860107C9.41364 0.860107 0.0742188 10.1995 0.0742188 21.7203C0.0742188 33.241 9.41364 42.5805 20.9344 42.5805Z" fill="url(#paint0_linear_935_71)"/>
<path d="M27.8884 16.0706C28.6083 16.0706 29.1921 15.4869 29.1921 14.7669C29.1921 14.0468 28.6083 13.4631 27.8884 13.4631V16.0706ZM15.2853 16.0706H27.8884V13.4631H15.2853V16.0706ZM15.2853 20.4166H22.2388V17.809H15.2853V20.4166ZM14.4162 16.9399C14.4162 16.4597 14.8053 16.0706 15.2853 16.0706V13.4631C13.3653 13.4631 11.8086 15.0197 11.8086 16.9399H14.4162ZM11.8086 16.9399C11.8086 18.8599 13.3653 20.4166 15.2853 20.4166V17.809C14.8053 17.809 14.4162 17.4198 14.4162 16.9399H11.8086Z" fill="white"/>
<path d="M29.4098 26.9353V26.2835H28.7579H26.1504C25.0703 26.2835 24.1948 25.4079 24.1948 24.3279C24.1948 23.2478 25.0703 22.3722 26.1504 22.3722H28.7579H29.4098V21.7202V21.6773C29.4098 21.0995 29.4098 20.6016 29.3562 20.2028C29.2988 19.7756 29.1693 19.366 28.837 19.0337L28.3794 19.4912L28.837 19.0337C28.5047 18.7015 28.0952 18.5719 27.6678 18.5144C27.2692 18.4608 26.7712 18.4608 26.1933 18.461H26.1504H13.1128H12.4609V19.1128V26.9353V26.9783C12.4609 27.5561 12.4608 28.0541 12.5144 28.4528C12.5718 28.8801 12.7015 29.2898 13.0337 29.6219C13.3659 29.9542 13.7756 30.0837 14.2028 30.1412C14.6016 30.1948 15.0995 30.1948 15.6775 30.1948H15.7202H26.1504C26.1648 30.1948 26.179 30.1948 26.1933 30.1948C26.7712 30.1948 27.2692 30.1948 27.6678 30.1412C28.0952 30.0837 28.5047 29.9542 28.837 29.6219C29.1693 29.2898 29.2988 28.8801 29.3562 28.4528C29.4098 28.0541 29.4098 27.5561 29.4098 26.9783C29.4098 26.964 29.4098 26.9497 29.4098 26.9353Z" fill="white" stroke="white" stroke-width="0.889868"/>
<defs>
<linearGradient id="paint0_linear_935_71" x1="0.0742188" y1="26.8289" x2="41.9978" y2="28.9147" gradientUnits="userSpaceOnUse">
<stop stop-color="#756BEB"/>
<stop offset="1" stop-color="#4F84EA"/>
</linearGradient>
</defs>
</svg>
